<svg width="430" height="932" viewBox="0 0 430 932" fill="none" xmlns="http://www.w3.org/2000/svg">
<g clip-path="url(#clip0_3205_3546)">
<path opacity="0.25" d="M621.743 405.159C607.26 434.48 590.894 456.978 554.08 454.984C520.547 453.176 509.549 421.749 488.225 401.468C465.279 379.659 424.644 375.055 397.486 391.459C373.664 405.849 369.526 426.837 359.628 448.907C352.787 459.774 340.503 466.951 339.254 481.341C338.061 495.153 351.389 527.605 367.662 528.295C388.799 529.19 400.021 493.438 408.67 479.719C426.396 451.628 457.096 450.641 486.044 461.116C521.032 473.791 531.507 495.358 545.916 527.009C561.685 561.679 585.377 599.201 620.234 617.469C647.728 631.896 665.417 622.24 681.019 606.974V371.197C651.81 367.357 634.773 378.821 621.762 405.178L621.743 405.159Z" fill="#13D9E5"/>
<path opacity="0.25" d="M-168.816 302.9C-150.885 365.493 -124.956 396.995 -59.6977 372.11C-21.7839 357.646 5.33728 343.293 42.5054 369.799C69.1234 388.793 85.7502 414.647 68.21 445.347L82.19 428.571C180.385 397.815 165.641 255.741 71.006 230.074C48.433 223.941 28.5814 229.719 6.698 232.776C-23.592 237.008 -32.3528 228.154 -52.6331 204.891C-88.9252 163.268 -92.5973 128.914 -79.3629 76.275C-72.9134 50.589 -64.0222 25.3505 -59.6977 -0.0185547H-251V175.179C-242.444 176.148 -234 178.702 -225.911 183.213C-181.976 207.743 -181.193 259.674 -168.816 302.881V302.9Z" fill="#13D9E5"/>
<path opacity="0.25" d="M-154.594 550.607C-140.204 518.975 -129.728 497.39 -94.7222 484.715C-65.7743 474.239 -35.0742 475.227 -17.3476 503.317C-8.68001 517.055 2.52264 552.806 23.6604 551.893C39.9331 551.203 53.2607 518.751 52.0677 504.939C50.8189 490.567 38.5351 483.372 31.6942 472.505C21.7964 450.417 17.6583 429.447 -6.16359 415.057C-33.3221 398.654 -73.9573 403.239 -96.9031 425.066C-118.246 445.347 -129.244 476.774 -162.758 478.582C-199.572 480.558 -215.938 458.078 -230.421 428.757C-236.237 416.977 -242.854 408.179 -251 402.382V648.001C-244.364 647.479 -237.076 645.335 -228.912 641.048C-194.073 622.781 -170.382 585.259 -154.594 550.588V550.607Z" fill="#13D9E5"/>
<path opacity="0.25" d="M604.856 742.413C560.921 717.882 560.138 665.951 547.761 622.744C529.83 560.151 503.901 528.649 438.643 553.533C400.729 567.998 373.608 582.351 336.44 555.845C309.822 536.851 293.195 510.997 310.735 480.297L296.755 497.073C198.56 527.829 213.304 669.884 307.939 695.57C330.512 701.703 350.364 695.924 372.247 692.867C402.537 688.636 411.298 697.49 431.578 720.753C467.87 762.357 471.542 796.73 458.308 849.369C451.318 877.198 441.457 904.506 437.674 932.019H681.019V739.598C656.768 751.975 629.181 756.001 604.874 742.413H604.856Z" fill="#13D9E5"/>
<path opacity="0.25" d="M-251 932H-11.9793C-16.5088 914.068 -22.2872 896.099 -26.8727 877.925C-40.107 825.305 -36.435 790.933 -0.142883 749.309C20.1375 726.047 28.8983 717.193 59.1882 721.424C81.0716 724.481 100.923 730.259 123.496 724.127C139.638 719.746 153.432 711.992 164.765 701.964C176.08 712.346 195.26 719.336 204.506 725.152C232.596 742.879 233.603 773.579 223.108 802.527C210.433 837.514 188.848 847.99 157.216 862.398C124.149 877.441 88.4903 899.716 69.4216 931.981H267.192C243.929 918.766 227.526 902.232 229.241 870.581C231.049 837.067 262.476 826.05 282.756 804.726C304.565 781.78 309.169 741.145 292.766 713.987C278.376 690.165 257.406 686.027 235.318 676.129C224.45 669.288 217.255 657.004 202.884 655.755C200.722 655.569 198.094 655.755 195.204 656.221C212.856 605.968 195.279 544.624 134.699 525.648L120.719 508.872C138.259 539.572 121.632 565.444 95.0143 584.42C57.8462 610.926 30.7436 596.573 -7.1888 582.109C-72.4474 557.224 -98.357 588.707 -116.307 651.3C-128.684 694.508 -129.467 746.439 -173.402 770.969C-198.193 784.819 -226.377 780.364 -250.981 767.409V931.981L-251 932Z" fill="#13D9E5"/>
<path opacity="0.25" d="M493.183 0C497.862 19.9634 504.46 39.9082 509.549 60.1513C522.784 112.772 519.111 147.144 482.819 188.767C462.539 212.03 453.778 220.884 423.488 216.653C401.605 213.596 381.753 207.817 359.18 213.95C339.515 219.281 323.298 229.663 310.847 243.01C307.51 234.249 302.682 226.215 296.419 219.635C276.139 198.292 244.712 187.295 242.904 153.78C240.928 116.966 263.408 100.6 292.729 86.1168C319.496 72.8824 330.941 55.5658 326.56 25.4995C325.05 15.1357 321.863 7.1764 317.632 0.01864H119.805C95.1447 25.1454 57.5851 44.0463 80.4378 87.6266C98.705 122.465 136.227 146.175 170.898 161.944C202.53 176.334 224.115 186.81 236.79 221.816C247.266 250.764 246.259 281.464 218.187 299.191C204.45 307.858 168.698 319.061 169.612 340.199C170.301 356.471 202.753 369.799 216.566 368.606C230.937 367.357 238.132 355.073 248.999 348.233C260.519 343.069 271.759 339.453 281.899 333.805C286.372 368.289 307.622 399.791 348.034 412.447L362.014 429.223C344.473 398.523 361.1 372.651 387.718 353.675C424.886 327.169 451.989 341.522 489.921 355.987C555.18 380.871 581.09 349.388 599.04 286.776C611.417 243.569 612.2 191.638 656.134 167.108C664.149 162.634 672.537 160.062 681.037 159.092V0H493.221H493.183Z" fill="#13D9E5"/>
</g>
<defs>
<clipPath id="clip0_3205_3546">
<rect width="430" height="932" fill="white"/>
</clipPath>
</defs>
</svg>
